<svg width="16" height="16" viewBox="0 0 16 16" fill="none" xmlns="http://www.w3.org/2000/svg">
<rect width="16" height="16" rx="8" fill="#F13D3D"/>
<path d="M8.46998 8.00001L9.90331 6.57001C9.96608 6.50724 10.0013 6.42211 10.0013 6.33334C10.0013 6.24457 9.96608 6.15944 9.90331 6.09667C9.84054 6.0339 9.75541 5.99864 9.66665 5.99864C9.57788 5.99864 9.49275 6.0339 9.42998 6.09667L7.99998 7.53001L6.56998 6.09667C6.50721 6.0339 6.42208 5.99864 6.33331 5.99864C6.24455 5.99864 6.15941 6.0339 6.09665 6.09667C6.03388 6.15944 5.99862 6.24457 5.99862 6.33334C5.99862 6.42211 6.03388 6.50724 6.09665 6.57001L7.52998 8.00001L6.09665 9.43001C6.0654 9.46099 6.04061 9.49786 6.02368 9.53848C6.00676 9.5791 5.99805 9.62267 5.99805 9.66667C5.99805 9.71068 6.00676 9.75424 6.02368 9.79486C6.04061 9.83548 6.0654 9.87235 6.09665 9.90334C6.12763 9.93458 6.1645 9.95938 6.20512 9.9763C6.24574 9.99323 6.28931 10.0019 6.33331 10.0019C6.37732 10.0019 6.42089 9.99323 6.46151 9.9763C6.50212 9.95938 6.53899 9.93458 6.56998 9.90334L7.99998 8.47001L9.42998 9.90334C9.46097 9.93458 9.49783 9.95938 9.53845 9.9763C9.57907 9.99323 9.62264 10.0019 9.66665 10.0019C9.71065 10.0019 9.75422 9.99323 9.79484 9.9763C9.83546 9.95938 9.87232 9.93458 9.90331 9.90334C9.93456 9.87235 9.95935 9.83548 9.97628 9.79486C9.9932 9.75424 10.0019 9.71068 10.0019 9.66667C10.0019 9.62267 9.9932 9.5791 9.97628 9.53848C9.95935 9.49786 9.93456 9.46099 9.90331 9.43001L8.46998 8.00001Z" fill="#EFEDEE"/>
</svg>
